# xmcd
#
# Track frame offsets:
#	150
#	15074
#	31884
#	63844
#	80190
#	96838
#	114383
#	136266
#	152219
#	168260
#	178641
#	190571
#	205529
#	220878
#	232222
#	246613
#	258352
#	274625
#	287996
#	300284
#	310181
#	321559
#
# Disc length: 4424 seconds
#
# Revision: 0
# Processed by: cddbd v1.5.2PL0 Copyright (c) Steve Scherf et al.
# Submitted via: EasyCDDAExtractor 2010.6.0.0
#
DISCID=30114616
DTITLE=Various Artist - Soul Session
DYEAR=1999
DGENRE=R&B
TTITLE0=Love Is So Good When You're Stealling It-Z.Z. Hill
TTITLE1=Marvin Sease-Candy Licker
TTITLE2=Lenny Williams-Cause I Love You
TTITLE3=Teddy Pendergrass- Love T.K.O
TTITLE4=Patti LaBelle-If Only You Know
TTITLE5=Shirley Brown-Woman To Woman
TTITLE6=The Whispers-And The Beat Goes On
TTITLE7=Teddy Pendergrass-Close The Door
TTITLE8=McFadden and Whithead-Ain't No Stoppin' Us Now
TTITLE9=Back Up Train-Al Green
TTITLE10=Betty Everett-There'll Come A Time
TTITLE11=Oscar Toney Jr.--For Your Precious Love
TTITLE12=Garnett Mimms and The Enchanters-Cry Baby
TTITLE13=Bettyr Swann-Don't Touch Me
TTITLE14=Al Green- I'm Still In Love With You
TTITLE15=Bobby Womack-Loookin' For A Love
TTITLE16=Dorothy Moore-Misty Blue
TTITLE17=King Floyd-Groove Me
TTITLE18=James Brown-Please Please Please
TTITLE19=Lou Rawl-Love Is A Hurtin' Thing
TTITLE20=Clarence Carter-Sixty-Minutr Man
TTITLE21=Willie Mitchell-Soul Serenade
EXTD=
EXTT0=
EXTT1=
EXTT2=
EXTT3=
EXTT4=
EXTT5=
EXTT6=
EXTT7=
EXTT8=
EXTT9=
EXTT10=
EXTT11=
EXTT12=
EXTT13=
EXTT14=
EXTT15=
EXTT16=
EXTT17=
EXTT18=
EXTT19=
EXTT20=
EXTT21=
PLAYORDER=
